<?xml version="1.0" encoding="UTF-8"?>
<svg version="1.1" xmlns="http://www.w3.org/2000/svg" width="241" height="260">
<path d="M0 0 C79.53 0 159.06 0 241 0 C241 85.8 241 171.6 241 260 C161.47 260 81.94 260 0 260 C0 174.2 0 88.4 0 0 Z " fill="#FEFEFE" transform="translate(0,0)"/>
<path d="M0 0 C17.0775 -0.061875 34.155 -0.12375 51.75 -0.1875 C57.12249023 -0.21481201 62.49498047 -0.24212402 68.03027344 -0.27026367 C74.64111328 -0.28381348 74.64111328 -0.28381348 77.7456665 -0.28633118 C79.89265819 -0.29090797 82.03964264 -0.30139645 84.18658447 -0.31672668 C104.01599265 -0.45111844 120.71556823 0.87641115 136 15 C146.47076297 25.89343597 150.83605628 36.48872819 150.5769043 51.390625 C150.14734148 61.03522878 147.58712077 68.46382136 141.85546875 76.24609375 C140.8313704 77.96815083 140.8313704 77.96815083 141.15625 79.9453125 C142.19383879 82.47203335 143.6225967 84.29164849 145.3125 86.4375 C154.12678583 98.94938421 153.54600912 112.16158481 153.390625 126.83203125 C153.38315016 128.92094884 153.37746311 131.00987351 153.37347412 133.09880066 C153.35831567 138.55522557 153.31911976 144.01121396 153.2746582 149.46746826 C153.23349265 155.05181985 153.21541794 160.63624304 153.1953125 166.22070312 C153.15261479 177.14732556 153.08448412 188.07362626 153 199 C149.99984979 200.11231263 146.99878256 201.22213111 143.99755859 202.33154297 C142.73829811 202.79846809 142.73829811 202.79846809 141.45359802 203.27482605 C133.89826169 206.06532979 126.28220517 208.62684698 118.625 211.125 C110.28279011 213.84774421 102.04747413 216.67478805 93.91552734 219.97998047 C89.32434998 221.58623897 85.38674009 222.39910892 80.62109375 221.25 C79.79706055 221.05728516 78.97302734 220.86457031 78.12402344 220.66601562 C77.2374707 220.44623047 76.35091797 220.22644531 75.4375 220 C74.02065918 219.66258789 74.02065918 219.66258789 72.57519531 219.31835938 C70.50123123 218.82274541 68.42852572 218.32184298 66.35693359 217.81640625 C62.82080194 216.95641903 59.28012543 216.11738207 55.73828125 215.28125 C43.92335702 212.47895271 32.14469267 209.61832506 20.48046875 206.23828125 C13.68850384 204.36116453 6.8361912 202.7090478 0 201 C0 134.67 0 68.34 0 0 Z " fill="#484848" transform="translate(49,25)"/>
<path d="M0 0 C21.73006159 -0.20054405 21.73006159 -0.20054405 31.05078125 -0.24414062 C37.39067725 -0.27393615 43.73020941 -0.30903993 50.06982422 -0.37719727 C55.18568132 -0.43184867 60.3011478 -0.46149002 65.41727448 -0.47438622 C67.36117952 -0.48356694 69.30506516 -0.50149376 71.24880219 -0.52865028 C85.4608716 -0.71916768 97.19100924 0.28902517 108.0234375 10.609375 C114.57799869 18.53702609 117.42662784 27.32176065 117.34765625 37.44140625 C116.63441054 44.74215731 113.57608905 51.16479907 109.125 56.9375 C106.75452606 59.69516798 106.75452606 59.69516798 107.09765625 62.3046875 C108.26599485 65.79453008 110.11706771 68.23750015 112.3125 71.1875 C121.28643705 83.89245374 121.54669079 93.76414818 121 109 C120.17757812 109.31453125 119.35515625 109.6290625 118.5078125 109.953125 C113.25663308 111.96627923 108.01339212 113.98491999 102.8125 116.125 C99.70452099 117.37834665 96.61831249 118.43971121 93.39453125 119.3515625 C89.69024995 120.4439779 86.09355988 121.683574 82.4921875 123.078125 C81.56792969 123.43390625 80.64367187 123.7896875 79.69140625 124.15625 C77.801709 124.89011301 75.91628491 125.63506851 74.03515625 126.390625 C73.11347656 126.74125 72.19179687 127.091875 71.2421875 127.453125 C70.4260498 127.77442383 69.60991211 128.09572266 68.76904297 128.42675781 C65.03536631 129.19969669 61.70181233 128.64774123 58 128 C57.32478302 127.88563599 56.64956604 127.77127197 55.95388794 127.65344238 C53.81217109 127.27800803 51.67564589 126.88015142 49.5390625 126.4765625 C48.7496225 126.32972015 47.9601825 126.18287781 47.14682007 126.03158569 C44.63912614 125.56494537 42.13201422 125.09527728 39.625 124.625 C36.34674014 124.01093354 33.06812267 123.39884118 29.7890625 122.7890625 C28.98422424 122.63906799 28.17938599 122.48907349 27.35015869 122.33453369 C20.7743633 121.11929261 14.1831168 120.01127971 7.57754517 118.97012329 C2.21297649 118.10648824 2.21297649 118.10648824 0 117 C0 101.16 0 85.32 0 69 C6.6 69 13.2 69 20 69 C20 81.21 20 93.42 20 106 C27.81133607 105.94886196 35.62071116 105.8857912 43.43139648 105.79248047 C46.08614811 105.762152 48.74029755 105.74308861 51.39526367 105.72900391 C55.22097004 105.70749103 59.04568641 105.660794 62.87109375 105.609375 C64.04957382 105.60814636 65.22805389 105.60691772 66.44224548 105.60565186 C76.4349056 105.42979763 83.80157984 103.02702921 91 96 C95.18768669 90.22388043 95.65714135 83.95375028 95 77 C93.32621332 71.71435784 91.08711581 68.68837281 87 65 C85.66666667 63.66666667 84.33333333 62.33333333 83 61 C83.70576172 60.47212891 83.70576172 60.47212891 84.42578125 59.93359375 C88.66633775 56.57099926 91.87915767 53.47294184 93 48 C93.86935994 39.01253246 92.82037719 33.35876475 87.9375 25.8125 C83.87550742 21.29563693 77.92165171 19.37801088 72.02142334 18.61462402 C68.74608736 18.44576911 65.49058738 18.39419228 62.2109375 18.390625 C61.02650055 18.37408875 59.8420636 18.35755249 58.62173462 18.34051514 C54.872769 18.29228678 51.1242083 18.27071918 47.375 18.25 C44.81899032 18.22181943 42.2629993 18.19188912 39.70703125 18.16015625 C33.47117236 18.08327025 27.23656486 18.04251237 21 18 C21 29.55 21 41.1 21 53 C14.07 53 7.14 53 0 53 C0 35.51 0 18.02 0 0 Z " fill="#FBFBFB" transform="translate(65,42)"/>
<path d="M0 0 C5.75928439 0.88083173 11.40255025 1.74648918 17 3.375 C22.18048901 4.86261517 27.40070356 5.91376768 32.6875 6.9375 C41.5524805 8.65669807 50.25858889 10.73370823 59 13 C59 17.95 59 22.9 59 28 C51.12287318 26.87469617 51.12287318 26.87469617 47.93920898 26.1237793 C47.22413681 25.95657883 46.50906464 25.78937836 45.77232361 25.61711121 C45.02116776 25.4379567 44.2700119 25.25880219 43.49609375 25.07421875 C42.29558128 24.79092461 42.29558128 24.79092461 41.07081604 24.50190735 C39.38205196 24.10249744 37.69365685 23.70152461 36.00561523 23.29907227 C33.47032797 22.69531767 30.93352751 22.09828039 28.39648438 21.50195312 C18.84870841 19.24368985 9.41057324 16.7767863 0 14 C0 9.38 0 4.76 0 0 Z " fill="#F7F7F7" transform="translate(65,201)"/>
<path d="M0 0 C6.7259224 0.73829715 13.30326759 1.96620204 19.9375 3.28515625 C21.05817871 3.50570175 22.17885742 3.72624725 23.33349609 3.95347595 C26.88951271 4.65390018 30.44476071 5.35814198 34 6.0625 C36.42052305 6.53996639 38.84109547 7.01718261 41.26171875 7.49414062 C47.17505447 8.6598654 53.08770417 9.82901302 59 11 C59 15.95 59 20.9 59 26 C47.26874191 24.32410599 35.6917372 21.96898761 24.10888672 19.48779297 C18.02945406 18.19315666 11.93324944 17.02278964 5.81054688 15.95117188 C1.1060176 15.1060176 1.1060176 15.1060176 0 14 C-0.07271741 11.64686445 -0.08370868 9.29166332 -0.0625 6.9375 C-0.05347656 5.64714844 -0.04445313 4.35679687 -0.03515625 3.02734375 C-0.02355469 2.02832031 -0.01195313 1.02929688 0 0 Z " fill="#F9F9F9" transform="translate(65,173)"/>
<path d="M0 0 C4.716183 -0.13833454 9.42524421 -0.25755133 14.1418457 -0.32958984 C15.74332613 -0.35963274 17.34464379 -0.40048117 18.94555664 -0.45263672 C33.96692109 -0.92950543 33.96692109 -0.92950543 38.546875 2.76953125 C40.75319728 5.07604082 41.46174635 6.88512949 41.6875 10.0625 C40.93973608 14.34514789 40.12943112 16.04442617 37 19 C33.33995584 21.46328485 29.64499587 21.25794327 25.390625 21.1953125 C24.66381531 21.1924826 23.93700562 21.18965271 23.18817139 21.18673706 C20.87527749 21.17557523 18.56277612 21.15047851 16.25 21.125 C14.67839102 21.11496501 13.10677596 21.10584006 11.53515625 21.09765625 C7.68983264 21.07735359 3.84535377 21.03819888 0 21 C0 14.07 0 7.14 0 0 Z " fill="#FCFCFC" transform="translate(102,111)"/>
<path d="M0 0 C0 5.28 0 10.56 0 16 C-10.1612434 20.23385142 -20.40108311 23.88671702 -30.87304688 27.28320312 C-31.86755859 27.60740234 -32.86207031 27.93160156 -33.88671875 28.265625 C-34.77576904 28.55211914 -35.66481934 28.83861328 -36.58081055 29.13378906 C-38.99085106 29.9297093 -38.99085106 29.9297093 -41.06958008 31.10839844 C-43 32 -43 32 -47 32 C-47 26.39 -47 20.78 -47 15 C-45.49308594 14.52949219 -43.98617187 14.05898437 -42.43359375 13.57421875 C-40.43483633 12.94550163 -38.43614172 12.31658482 -36.4375 11.6875 C-35.44685547 11.37876953 -34.45621094 11.07003906 -33.43554688 10.75195312 C-27.20274745 8.78543451 -27.20274745 8.78543451 -21.13671875 6.3671875 C-18.22187328 5.09670691 -15.4520622 4.21341626 -12.375 3.4375 C-9.58013605 2.72877376 -6.96658563 1.98656684 -4.2890625 0.91015625 C-2 0 -2 0 0 0 Z " fill="#FBFBFB" transform="translate(186,198)"/>
<path d="M0 0 C0 5.61 0 11.22 0 17 C-3.92806585 18.22864748 -7.85649733 19.45602711 -11.78588867 20.68041992 C-13.11748829 21.09573271 -14.4488754 21.51172759 -15.7800293 21.9284668 C-23.07969192 24.21321996 -30.3827796 26.44041372 -37.77978516 28.39257812 C-39.72653511 28.92518357 -41.64777977 29.54925992 -43.5625 30.1875 C-46 31 -46 31 -48 31 C-48 26.05 -48 21.1 -48 16 C-45.875625 15.29875 -43.75125 14.5975 -41.5625 13.875 C-35.85182832 11.98009243 -30.16900808 10.01593709 -24.5 8 C-1.98253558 0 -1.98253558 0 0 0 Z " fill="#FBFBFB" transform="translate(186,167)"/>
<path d="M0 0 C4.76912207 -0.04595514 9.53747342 -0.08576684 14.30664062 -0.10986328 C15.92841192 -0.11991023 17.55016516 -0.13355015 19.171875 -0.15087891 C21.50525374 -0.17518493 23.8383926 -0.18649613 26.171875 -0.1953125 C27.25647003 -0.21079636 27.25647003 -0.21079636 28.36297607 -0.22659302 C32.05445423 -0.22741259 34.94490728 -0.19510692 38 2 C40.45665197 5.68497796 40.70086491 8.71971786 40 13 C38.20636089 15.8100346 36.98119065 17.50940468 34 19 C31.44637396 19.08658569 28.9204558 19.11562516 26.3671875 19.09765625 C25.23943405 19.09553383 25.23943405 19.09553383 24.08889771 19.09336853 C21.6842249 19.08776465 19.27964473 19.07521157 16.875 19.0625 C15.24609509 19.0574855 13.61718873 19.0529225 11.98828125 19.04882812 C7.99212298 19.03864424 3.99616535 19.01906972 0 19 C0 12.73 0 6.46 0 0 Z " fill="#FDFDFD" transform="translate(102,76)"/>
</svg>
